<svg id="Capa_1" enable-background="new 0 0 512 512" height="512" viewBox="0 0 512 512" width="512" xmlns="http://www.w3.org/2000/svg"><g><path d="m475.926 114.239c-11.948-12.848-26.07-23.193-41.549-30.642 3.659 13.186 5.623 27.068 5.623 41.403 0 35.769-12.184 68.742-32.613 95h89.613c8.284 0 15-6.716 15-15 0-33.514-12.811-65.747-36.074-90.761z"/><path d="m336.368 271.242c-3.942 20.83-11.235 40.981-21.662 59.536-17.047 30.336-42.048 55.604-72.302 73.071-29.565 17.07-63.185 26.093-97.223 26.093-24 0-47.804-4.466-70.125-13.01 11.076 7.456 25.428 14.13 43.926 19.421 22.329 6.387 49.074 10.488 81.018 12.395v33.252h-15c-8.284 0-15 6.716-15 15s6.716 15 15 15h120c8.284 0 15-6.716 15-15s-6.716-15-15-15h-15v-39.157c57.991-18.979 100-73.593 100-137.843 0-19.497-4.745-38.23-13.585-54.91-12.134 8.892-25.605 16.062-40.047 21.152zm-76.368 210.758h-30v-32.127c4.895.084 9.892.127 15 .127 5.064 0 10.068-.263 15-.772z"/><path d="m285 250c68.925 0 125-56.075 125-125s-56.075-125-125-125-125 56.075-125 125 56.075 125 125 125zm35-154c8.284 0 15 6.716 15 15s-6.716 15-15 15-15-6.716-15-15 6.716-15 15-15z"/><path d="m227.404 377.869c25.594-14.776 46.738-36.142 61.148-61.787 6.608-11.759 11.714-24.28 15.274-37.228-6.172.751-12.453 1.146-18.826 1.146-53.618 0-100.959-27.369-128.801-68.866l-148.699 85.851c-3.445 1.989-5.959 5.265-6.989 9.108-1.029 3.843-.49 7.937 1.499 11.382 30.528 52.875 86.101 82.467 143.172 82.467 27.971 0 56.306-7.11 82.222-22.073z"/></g></svg>